<svg xmlns="http://www.w3.org/2000/svg" width="27.332" height="40.107" viewBox="0 0 27.332 40.107"><defs><style>.a{fill:#ccc;stroke:#ccc;stroke-miterlimit:10;stroke-width:0.5px;}</style></defs><g transform="translate(-26.871 -14.493)"><path class="a" d="M50.591,65.058H30.483A3.366,3.366,0,0,1,27.121,61.7V44.27a3.366,3.366,0,0,1,3.362-3.361H50.591a3.366,3.366,0,0,1,3.362,3.361V61.7A3.366,3.366,0,0,1,50.591,65.058ZM30.483,41.886A2.386,2.386,0,0,0,28.1,44.27V61.7a2.386,2.386,0,0,0,2.383,2.384H50.591A2.386,2.386,0,0,0,52.974,61.7V44.27a2.386,2.386,0,0,0-2.383-2.384H30.483Z" transform="translate(0 -10.708)"/><path class="a" d="M49.617,63.58H45.58a1.444,1.444,0,0,1-1.443-1.443.5.5,0,0,1,.017-.128l1.13-4.19a3.846,3.846,0,0,1-1.568-3.113,3.881,3.881,0,1,1,7.763,0,3.844,3.844,0,0,1-1.568,3.112l1.131,4.19a.474.474,0,0,1,.017.128A1.443,1.443,0,0,1,49.617,63.58Zm-4.5-1.389a.466.466,0,0,0,.462.412h4.037a.466.466,0,0,0,.462-.412l-1.2-4.454a.487.487,0,0,1,.22-.545,2.9,2.9,0,1,0-3,0,.49.49,0,0,1,.22.545Z" transform="translate(-7.061 -14.928)"/><path class="a" d="M52.358,28.781a.489.489,0,0,1-.489-.489V24.374a7.663,7.663,0,0,0-7.653-7.654H43.17a7.662,7.662,0,0,0-7.653,7.654v3.918a.489.489,0,1,1-.978,0V24.374a8.64,8.64,0,0,1,8.63-8.631h1.047a8.64,8.64,0,0,1,8.63,8.631v3.918A.486.486,0,0,1,52.358,28.781Z" transform="translate(-3.156 -1)"/></g></svg>