<svg xmlns="http://www.w3.org/2000/svg" width="190" height="100" viewBox="0 0 190 100">
  <g id="Grupo_9" data-name="Grupo 9" transform="translate(-66.704 -71.018)">
    <g id="Grupo_1" data-name="Grupo 1" transform="translate(66.704 71.018)">
      <path id="Caminho_1" data-name="Caminho 1" d="M146.324,97.85a1.511,1.511,0,0,0,.086,1.377.59.59,0,0,1-.377.9c-1.427.233-4.364-2.538-5.328-3.483a3.812,3.812,0,0,0-2.6-1.092,1.758,1.758,0,0,1,1.022-1.265,11.614,11.614,0,0,0,3.766.759,5.756,5.756,0,0,0,5.511-3.366,10.779,10.779,0,0,0,.673-5.255c-.222-2.117-2.74-2.716-3.914-2.884a3.194,3.194,0,0,0-1.637.174,1.774,1.774,0,0,0-1.208,2.005c.158,1.29.874,1.582,1.421,1.61a.473.473,0,0,1,.423.662,3.879,3.879,0,0,1-2.721,2.113c-1.931.445-6.41-.205-6.41-.205l3.191-3.032a13.956,13.956,0,0,0,.84-4.75,5.775,5.775,0,0,0-.834-3.288c-2.866-4.733-6.551-5.662-6.551-5.662-4.819-4.279-8.236-1-9.579-.1s-.881,3.161-.881,3.161,1.446,3.416,4.1,3.866,2.518-2.413,2.518-2.413a26.889,26.889,0,0,1,2.978.843,5.677,5.677,0,0,1,3.855,5.342,3.078,3.078,0,0,1-.318,1.464,10.632,10.632,0,0,1-3.318,2.949c-6.048.628-8.5,3.338-8.5,3.338l.2-1.641a.218.218,0,0,0-.244-.245l-1.125.158v-.705a.218.218,0,0,0-.333-.186l-.995.618V87.29a.218.218,0,0,0-.355-.171l-2.611,2.144c-3.1-4.279-9.131-4.093-9.131-4.093s-6.066-.227-9.128,4.093l-2.613-2.144a.216.216,0,0,0-.352.171v2.327l-1-.618a.215.215,0,0,0-.33.183v.708l-1.125-.158a.218.218,0,0,0-.244.245l.2,1.641s-2.459-2.71-8.5-3.338a10.6,10.6,0,0,1-3.318-2.949,3.009,3.009,0,0,1-.318-1.464,5.677,5.677,0,0,1,3.852-5.342,26.776,26.776,0,0,1,2.981-.843s-.136,2.866,2.517,2.413,4.1-3.866,4.1-3.866.469-2.257-.878-3.161-4.76-4.179-9.579.1c0,0-3.685.93-6.555,5.665a5.793,5.793,0,0,0-.834,3.285,13.894,13.894,0,0,0,.844,4.75L80.831,89.9s-4.48.65-6.41.205A3.88,3.88,0,0,1,71.7,87.993a.475.475,0,0,1,.423-.662c.55-.028,1.267-.32,1.425-1.61a1.777,1.777,0,0,0-1.208-2.005,3.2,3.2,0,0,0-1.637-.174c-1.174.168-3.692.768-3.917,2.884a10.6,10.6,0,0,0,.8,5.519,5.662,5.662,0,0,0,5.245,3.1,11.66,11.66,0,0,0,3.907-.762,1.759,1.759,0,0,1,1.026,1.265,3.812,3.812,0,0,0-2.6,1.092c-.967.945-3.9,3.716-5.332,3.483a.591.591,0,0,1-.373-.9,1.524,1.524,0,0,0,.086-1.377c-.411-1.205-2.341.3-2.341.3a2.054,2.054,0,0,0-.146,2.3c.732,1.237,2.194,4.24,11.207-.441a2.8,2.8,0,0,1,3.278.441,7.738,7.738,0,0,0,5.785,2.092s-5.257,8.2-5.18,10.284a6.518,6.518,0,0,1-1.288,2.551c-.9.942-1.872,4.435-1.989,6.753s-3.16,6.358-3.16,6.358-5.307,6.909-3.435,13.858a14.1,14.1,0,0,0,.9,2.316s-.742,9.932,6.632,13.621a2.487,2.487,0,0,0,2.613,2.865s1.171,5.066,6.166,5.967v1.964a1.814,1.814,0,0,0-.742,1.728s.918.491,3.142,0h6.536a3.849,3.849,0,0,1-.587-3.378c.556-2.029,5.474-.324,5.474-.324v-.969s-2.369-.591-2.752-1.473l.352-4.121a.69.69,0,0,1-.936-.5s-.877-.674-2.079-1.411a2.917,2.917,0,0,1,.059-1.828s-1.406-.942-1.61-1.706a10.431,10.431,0,0,1,1.406-5.534s-.352-2.739.352-3.447a16.035,16.035,0,0,1,5.353-2.679l1.406-.587s-5.032-2.238-6.03-3.27.587-6.977.587-6.977-2.984-5.152-3.54-8.127-.343-3.446-.343-3.446,4.8.239,5.736.826,3.63,3.062,3.63,3.062,1.986-.2,3.938-.2,3.942.2,3.942.2a47.19,47.19,0,0,1,3.63-3.062c.935-.587,5.733-.826,5.733-.826s.216.472-.34,3.446-3.54,8.127-3.54,8.127,1.578,5.949.584,6.977-6.027,3.27-6.027,3.27l1.4.587a16.055,16.055,0,0,1,5.356,2.679c.7.708.352,3.447.352,3.447,1.2,2.206,1.609,4.771,1.4,5.534s-1.609,1.706-1.609,1.706a2.891,2.891,0,0,1,.059,1.828c-1.2.736-2.076,1.411-2.076,1.411a.692.692,0,0,1-.939.5l.352,4.121c-.38.882-2.749,1.473-2.749,1.473v.969s4.914-1.705,5.47.324a3.855,3.855,0,0,1-.583,3.378h6.536c2.224.491,3.141,0,3.141,0a1.813,1.813,0,0,0-.741-1.728v-1.964c5-.9,6.163-5.967,6.163-5.967a2.488,2.488,0,0,0,2.616-2.865c7.374-3.689,6.632-13.621,6.632-13.621a14.487,14.487,0,0,0,.9-2.316c1.872-6.949-3.435-13.858-3.435-13.858s-3.043-4.042-3.16-6.358-1.093-5.811-1.989-6.753a6.518,6.518,0,0,1-1.288-2.551c.077-2.083-5.181-10.284-5.181-10.284a7.745,7.745,0,0,0,5.786-2.092A2.8,2.8,0,0,1,137.6,100c9.014,4.68,10.475,1.678,11.207.441a2.053,2.053,0,0,0-.145-2.3S146.735,96.645,146.324,97.85Zm-49.672,9.06a2.572,2.572,0,1,1,2.555-2.571A2.561,2.561,0,0,1,96.652,106.91Zm13.938,2.159c-.6,1.153-2.663,1.029-2.663,1.029s-2.171.08-2.662-1.029c0,0-2.283.174-2.224-.618s.673-2.21,4.886-2.21,4.828,1.415,4.887,2.21S110.59,109.069,110.59,109.069Zm8.578-2.159a2.572,2.572,0,1,1,2.555-2.571A2.561,2.561,0,0,1,119.168,106.91Zm-6.6,26.384a4.126,4.126,0,0,0-1.387.068c-.689.214-1.1,1.657-.9,2.173s2.054.552,2.53.372a1.263,1.263,0,0,0,.992-1.389v-.024A1.339,1.339,0,0,0,112.567,133.294Zm-7.892.068a4.118,4.118,0,0,0-1.387-.068,1.336,1.336,0,0,0-1.23,1.2c0,.009,0,.018,0,.024a1.263,1.263,0,0,0,.992,1.389c.478.18,2.335.143,2.53-.372S105.367,133.577,104.675,133.363Z" transform="translate(-66.704 -71.018)" fill="#fff"/>
    </g>
    <g id="Grupo_6" data-name="Grupo 6" transform="translate(171.476 104.054)">
      <g id="Grupo_3" data-name="Grupo 3">
        <g id="Grupo_2" data-name="Grupo 2">
          <path id="Caminho_2" data-name="Caminho 2" d="M176.523,115.369V125a5.737,5.737,0,0,0,.223,1.938,1.381,1.381,0,0,0,.8.775v5.234h-8.9v-5.234a1.7,1.7,0,0,0,.833-.882A5.238,5.238,0,0,0,169.72,125V111.318a5.157,5.157,0,0,0-.233-1.822,1.711,1.711,0,0,0-.833-.872v-5.175h12.114l2.694,12.6,2.695-12.6h11.882v5.175a1.7,1.7,0,0,0-.873.862,4.875,4.875,0,0,0-.252,1.832V125a4.855,4.855,0,0,0,.252,1.841,1.783,1.783,0,0,0,.873.872v5.234H187.4v-5.234a1.388,1.388,0,0,0,.766-.775,5.763,5.763,0,0,0,.223-1.938v-9.634l-4.051,17.581h-3.567Z" transform="translate(-168.654 -103.449)" fill="#fff"/>
          <path id="Caminho_3" data-name="Caminho 3" d="M203.328,132.95v-5.234a1.807,1.807,0,0,0,.862-.911,4.969,4.969,0,0,0,.243-1.8V111.318a4.969,4.969,0,0,0-.243-1.8,1.727,1.727,0,0,0-.862-.892v-5.175H225.4v9.769h-8.451v-.834a3.111,3.111,0,0,0-.543-2.142,2.888,2.888,0,0,0-2.054-.552h-.795v5.233h5.854v5.718h-5.854l.019,5.951a2.635,2.635,0,0,0,.291.029c.116.007.278.01.485.01a2.47,2.47,0,0,0,2.045-.746,4.357,4.357,0,0,0,.591-2.627q0-.407-.01-.63c-.006-.148-.016-.293-.029-.436H225.4V132.95Z" transform="translate(-168.654 -103.449)" fill="#fff"/>
          <path id="Caminho_4" data-name="Caminho 4" d="M244.384,111.318a5.59,5.59,0,0,0-.223-1.89,1.443,1.443,0,0,0-.8-.8v-5.175h10.525v5.175a1.653,1.653,0,0,0-.862.862,5.04,5.04,0,0,0-.243,1.832v10.39a36.139,36.139,0,0,1-.232,4.933,7.785,7.785,0,0,1-.776,2.49,7.433,7.433,0,0,1-3.585,3.334,14.747,14.747,0,0,1-6.087,1.086,14.435,14.435,0,0,1-5.408-.9,7.8,7.8,0,0,1-3.527-2.723,6.859,6.859,0,0,1-1.076-2.413,17.68,17.68,0,0,1-.32-3.848V111.318a4.219,4.219,0,0,0-.291-1.8,1.921,1.921,0,0,0-1.008-.892v-5.175h11.3V108.6a1.536,1.536,0,0,0-.805.805,5.588,5.588,0,0,0-.223,1.909v12.987a4.378,4.378,0,0,0,.417,2.239,1.837,1.837,0,0,0,2.811-.01,4.385,4.385,0,0,0,.416-2.229Z" transform="translate(-168.654 -103.449)" fill="#fff"/>
        </g>
      </g>
      <g id="Grupo_5" data-name="Grupo 5" transform="translate(0 33.577)">
        <g id="Grupo_4" data-name="Grupo 4">
          <path id="Caminho_5" data-name="Caminho 5" d="M168.654,169.76v-5.695a1.919,1.919,0,0,0,.9-.96,5.488,5.488,0,0,0,.263-1.993v-14.89a5.4,5.4,0,0,0-.263-1.983,1.925,1.925,0,0,0-.9-.949v-5.632h12.254q7.507,0,10.134,2.342t2.626,8.9v9.639q0,6.538-2.636,8.88t-10.124,2.341Zm11.178-7h1.16a2.662,2.662,0,0,0,2.12-.675,4.376,4.376,0,0,0,.559-2.636V147.677a3.747,3.747,0,0,0-.549-2.426,2.9,2.9,0,0,0-2.13-.59h-1.16Z" transform="translate(-168.654 -137.026)" fill="#fff"/>
          <path id="Caminho_6" data-name="Caminho 6" d="M214.128,146.222a6.079,6.079,0,0,0-.243-2.057,1.57,1.57,0,0,0-.875-.875v-5.632h11.453v5.632a1.8,1.8,0,0,0-.939.938,5.5,5.5,0,0,0-.263,1.994v11.3a39.381,39.381,0,0,1-.253,5.367,8.511,8.511,0,0,1-.844,2.711,8.1,8.1,0,0,1-3.9,3.627,16.04,16.04,0,0,1-6.623,1.181,15.7,15.7,0,0,1-5.884-.98,8.5,8.5,0,0,1-3.839-2.964,7.454,7.454,0,0,1-1.17-2.626,19.139,19.139,0,0,1-.349-4.186V146.222a4.6,4.6,0,0,0-.316-1.962,2.09,2.09,0,0,0-1.1-.97v-5.632h12.3v5.611a1.664,1.664,0,0,0-.876.875,6.063,6.063,0,0,0-.242,2.078v14.131a4.77,4.77,0,0,0,.453,2.436,2,2,0,0,0,3.059-.011,4.773,4.773,0,0,0,.453-2.425Z" transform="translate(-168.654 -137.026)" fill="#fff"/>
          <path id="Caminho_7" data-name="Caminho 7" d="M229.9,148.5q0-6.453,2.658-8.963t9.365-2.51q6.686,0,9.322,2.51t2.636,8.963v10.462q0,6.434-2.625,8.943t-9.333,2.509q-6.729,0-9.376-2.5t-2.647-8.953Zm14.005,11.854V147a4.747,4.747,0,0,0-.464-2.436,1.664,1.664,0,0,0-1.518-.728,1.7,1.7,0,0,0-1.54.707A4.722,4.722,0,0,0,239.92,147v13.351a4.668,4.668,0,0,0,.464,2.436,1.7,1.7,0,0,0,1.54.707,1.67,1.67,0,0,0,1.518-.718A4.68,4.68,0,0,0,243.906,160.353Z" transform="translate(-168.654 -137.026)" fill="#fff"/>
        </g>
      </g>
    </g>
  </g>
</svg>
